<svg xmlns="http://www.w3.org/2000/svg" viewBox="0 0 900 600" role="img" aria-label="Wedding invitation envelope">
  <defs>
    <linearGradient id="paper" x1="0" y1="0" x2="1" y2="1">
      <stop offset="0" stop-color="#fff7e8"/>
      <stop offset="1" stop-color="#efd9aa"/>
    </linearGradient>
    <linearGradient id="gold" x1="0" y1="0" x2="1" y2="1">
      <stop offset="0" stop-color="#d7a84a"/>
      <stop offset="1" stop-color="#9a6b22"/>
    </linearGradient>
    <filter id="shadow" x="-20%" y="-20%" width="140%" height="150%">
      <feDropShadow dx="0" dy="22" stdDeviation="22" flood-color="#3a2a12" flood-opacity=".24"/>
    </filter>
  </defs>
  <rect width="900" height="600" fill="none"/>
  <g filter="url(#shadow)">
    <path d="M148 170h604c31 0 56 25 56 56v276c0 31-25 56-56 56H148c-31 0-56-25-56-56V226c0-31 25-56 56-56z" fill="url(#paper)"/>
    <path d="M100 210l350 214 350-214v292c0 26-22 48-48 48H148c-26 0-48-22-48-48z" fill="#f5e5bf"/>
    <path d="M105 520l270-220 75 46 75-46 270 220c-8 18-26 30-47 30H152c-21 0-39-12-47-30z" fill="#ead09b"/>
    <path d="M118 198l332 210 332-210" fill="none" stroke="#c7953c" stroke-width="10" stroke-linecap="round" stroke-linejoin="round" opacity=".8"/>
    <path d="M110 520l265-220M790 520L525 300" fill="none" stroke="#c7953c" stroke-width="8" stroke-linecap="round" opacity=".55"/>
  </g>
  <g transform="translate(450 350)">
    <circle r="82" fill="url(#gold)"/>
    <circle r="68" fill="none" stroke="#ffe6a3" stroke-width="4" opacity=".75"/>
    <text y="-6" text-anchor="middle" font-family="Georgia, serif" font-size="34" fill="#fff6d5" font-weight="700">R &amp; P</text>
    <text y="28" text-anchor="middle" font-family="Georgia, serif" font-size="16" fill="#fff6d5" letter-spacing="4">19 JULY 2026</text>
  </g>
</svg>
